<svg version="1" xmlns="http://www.w3.org/2000/svg" width="682.667" height="682.667" viewBox="0 0 512.000000 512.000000"><path d="M315.6 111.2l-54.8 108.3 5.1 16.2c2.8 8.9 5.1 16.7 5.1 17.3 0 .9-39.1 76.6-77.5 150-14.9 28.5-16 31.8-16 49 0 14.8 1 19.3 6.9 30.5 3.8 7.3 14.3 18.1 21.3 21.8 6.6 3.5 19 6.7 26.2 6.7 8.7 0 18.5-2.5 28-7.1 7.1-3.5 10.1-5.8 17.6-13.3 7.2-7.3 9.9-10.8 13.3-17.6 10.4-20.9 10.9-43.6 1.4-62.6-4.8-9.6-10-27.1-12.6-41.9-6.3-35.9-4.5-66.1 5.5-94 1.8-5 22-65.3 45-134C367 30.3 371.9 14.8 372 9.2c0-3.4-.4-6.2-.8-6.2-.5 0-25.5 48.7-55.6 108.2zm-26 104.9c6.4 6 2 16.9-6.9 16.9-9.9 0-13.6-13.6-4.9-18.5 3.5-1.9 8.8-1.2 11.8 1.6zm-32.2 187.1c18.8 7.1 27.5 31.6 19.3 54-11.7 32-49.1 44.9-69.5 23.9-23.3-23.9-7.8-70 26.7-79.3 8-2.2 15.4-1.7 23.5 1.4z"/><path d="M408.5 171.9l-90 28.7-7.4 21.8c-4 11.9-7.1 21.9-6.9 22.1.2.3 46.8-22.1 103.5-49.8 107.5-52.3 105.6-51.3 94.3-51.5-2-.1-42.1 12.2-93.5 28.7zM64 208.7c-25.5 3.3-47.1 18.3-57.6 40-14 28.8-3.5 61.3 24.1 74.8 9.6 4.7 17.3 6.5 28.3 6.5 11.7 0 20.8-2.1 33.1-7.5 11.4-5 165.3-80.3 166.3-81.4.5-.4-.6-4.8-2.3-9.8l-3-9.1-11.7 3.8c-14.3 4.7-23.2 6.5-38.2 8.1-30.5 3.1-69.9-4-101-18.1-5.8-2.6-12.5-5.2-15-5.8-5.4-1.3-18.2-2.2-23-1.5zm25.7 22.7c7.4 3.4 15.4 11.3 18.4 18.3 7.4 17.4-.4 39.1-18.7 51.6-10.7 7.3-16.7 9.1-30.4 9.2-10.9 0-11.9-.2-18.2-3.2-20-9.4-26.6-30.1-16.3-51 5.8-11.7 16.7-21.1 30.1-25.9 6-2.1 8.4-2.4 17.9-2.1 9.6.2 11.8.6 17.2 3.1z"/></svg>